<svg width="765" height="128" viewBox="0 0 765 128" fill="none" xmlns="http://www.w3.org/2000/svg">
<g clip-path="url(#clip0_1645_15723)">
<path d="M182 48.1174H206.903V55.8713H189.741V60.123H203.194V67.8768H189.741V72.1156H206.903V79.8694H182V48.1174Z" fill="#111827"/>
<path d="M278.82 48.1176V55.8715H268.804V79.9343H261.051V55.8456H251.009V48.0918L278.82 48.1176Z" fill="#111827"/>
<path d="M342.414 48.208H350.168V79.9342H342.414V69.0142H330.254V79.9342H322.5V48.208H330.254V61.2732H342.414V48.208Z" fill="#111827"/>
<path d="M394.753 48.1174H419.656V55.8713H402.494V60.123H415.921V67.8768H402.494V72.1156H419.656V79.8694H394.753V48.1174Z" fill="#111827"/>
<path d="M486.662 66.3649L492.128 79.9341H483.625L478.882 67.8769H471.128V79.9858H463.374V48.1175H481.531C483.685 48.1007 485.785 48.7916 487.508 50.0839C489.231 51.3763 490.483 53.1987 491.07 55.2712C491.657 57.3436 491.547 59.5515 490.758 61.5557C489.969 63.5599 488.543 65.2494 486.7 66.3649H486.662ZM483.625 57.939C483.618 57.3859 483.395 56.8572 483.004 56.4661C482.613 56.0749 482.084 55.8522 481.531 55.8455H471.089V60.123H481.518C481.8 60.1197 482.079 60.0603 482.338 59.9484C482.597 59.8365 482.832 59.6743 483.028 59.4711C483.224 59.268 483.377 59.0279 483.48 58.7649C483.582 58.5019 483.632 58.2212 483.625 57.939Z" fill="#111827"/>
<path d="M547.62 79.9342L543.071 68.5102V79.8438H535.317V48.0659H543.381L551.703 69.2856L560.078 48.0659H568.09V79.8438H560.336V68.5102L555.826 79.9342H547.62Z" fill="#111827"/>
<path d="M633.326 76.0186H620.402L618.903 79.8955H610.529L622.78 48.0789H630.948L643.238 79.8955H634.825L633.326 76.0186ZM630.366 68.2647L626.825 59.0764L623.31 68.2647H630.366Z" fill="#111827"/>
<path d="M686.775 48.1174H694.529V79.8436H686.775V48.1174Z" fill="#111827"/>
<path d="M747.772 72.1543H765.348V79.9082H740.031V48.1174H747.785L747.772 72.1543Z" fill="#111827"/>
<path d="M33.0273 63.7481L52.2052 96.9604H52.748H93.9984L103.949 79.7211L61.2643 79.6823L57.0643 72.3937H108.175L113.176 63.7481L108.175 55.0897H57.0643L61.2643 47.801H103.962L94.0243 30.5746H52.1793L33.0273 63.7481Z" fill="#1C64F2"/>
<path d="M-0.352783 64.1487L36.4004 127.756H109.881L146.634 64.11L109.661 0.24411H36.1678L-0.352783 64.1487ZM98.806 19.073L124.936 64.1487L98.9869 109.005H47.2946L21.4484 64.1487L47.0103 19.073H98.806Z" fill="#9D8CF6"/>
</g>
<defs>
<clipPath id="clip0_1645_15723">
<rect width="765" height="128" fill="white"/>
</clipPath>
</defs>
</svg>
